<?xml version="1.0" standalone="no"?>
<!DOCTYPE svg PUBLIC "-//W3C//DTD SVG 20010904//EN"
 "http://www.w3.org/TR/2001/REC-SVG-20010904/DTD/svg10.dtd">
<svg version="1.0" xmlns="http://www.w3.org/2000/svg"
 width="260.000000pt" height="260.000000pt" viewBox="0 0 260.000000 260.000000"
 preserveAspectRatio="xMidYMid meet">
<metadata>
Created by potrace 1.11, written by Peter Selinger 2001-2013
</metadata>
<g transform="translate(0.000000,260.000000) scale(0.100000,-0.100000)"
fill="#000000" stroke="none">
<path d="M0 1300 l0 -1300 1300 0 1300 0 0 1300 0 1300 -1300 0 -1300 0 0
-1300z m1591 1073 c82 -13 99 -19 95 -32 -3 -9 -21 -90 -41 -181 -20 -91 -39
-181 -44 -201 l-8 -35 91 -18 c231 -46 386 -148 466 -306 42 -84 54 -149 47
-264 -10 -178 -71 -325 -189 -451 -152 -163 -326 -240 -566 -252 -114 -5 -123
-7 -127 -27 -3 -12 -16 -68 -28 -126 l-22 -105 -182 -3 -181 -2 24 112 c32
153 33 148 -20 148 -76 0 -198 29 -272 64 -124 59 -217 174 -259 320 -14 47
-16 86 -13 195 4 117 9 146 33 211 98 265 353 423 796 495 27 4 38 11 43 28 3
12 19 87 36 167 17 80 33 152 35 161 4 13 -5 14 -75 7 -166 -16 -290 -58 -340
-114 -38 -44 -44 -69 -37 -160 l5 -74 -37 0 c-59 0 -142 29 -174 61 -16 17
-31 29 -32 27 -1 -2 -8 -14 -15 -27 -14 -28 -32 -15 -23 17 3 14 11 21 19 18
7 -3 16 -1 19 4 4 6 2 10 -2 10 -5 0 -6 30 -2 66 5 51 13 73 36 102 74 93 235
154 479 182 106 12 343 4 465 -17z m-1124 -449 c-3 -3 -12 -4 -19 -1 -8 3 -5
6 6 6 11 1 17 -2 13 -5z m61 -69 c-9 -9 -30 14 -23 25 6 9 10 8 17 -4 6 -10 8
-19 6 -21z m-74 4 c5 -4 0 -6 -10 -5 -11 2 -24 0 -29 -5 -14 -11 -39 6 -31 20
7 11 54 5 70 -10z m-28 -41 c4 -7 3 -8 -4 -4 -7 4 -12 2 -12 -3 0 -6 -5 -11
-11 -11 -8 0 -8 5 1 15 15 18 17 18 26 3z"/>
<path d="M1125 1771 c-157 -46 -284 -142 -345 -261 -54 -105 -86 -320 -68
-457 17 -127 91 -243 182 -284 52 -23 83 -24 90 -1 5 15 73 336 96 452 13 64
110 520 117 548 6 26 6 26 -72 3z"/>
<path d="M1567 1783 c-3 -5 -7 -21 -11 -38 -3 -16 -48 -230 -100 -475 -52
-245 -98 -463 -102 -484 l-7 -39 62 6 c125 11 246 93 332 224 126 193 162 447
88 620 -35 82 -106 143 -203 176 -58 20 -54 19 -59 10z"/>
</g>
</svg>
