<?xml version="1.0" standalone="no"?>
<!DOCTYPE svg PUBLIC "-//W3C//DTD SVG 20010904//EN"
 "http://www.w3.org/TR/2001/REC-SVG-20010904/DTD/svg10.dtd">
<svg version="1.0" xmlns="http://www.w3.org/2000/svg"
 width="260.000000pt" height="260.000000pt" viewBox="0 0 260.000000 260.000000"
 preserveAspectRatio="xMidYMid meet">
<metadata>
Created by potrace 1.11, written by Peter Selinger 2001-2013
</metadata>
<g transform="translate(0.000000,260.000000) scale(0.100000,-0.100000)"
fill="#000000" stroke="none">
<path d="M0 1300 l0 -1300 1300 0 1300 0 0 1300 0 1300 -1300 0 -1300 0 0
-1300z m1140 751 c0 -15 -10 -19 -60 -24 -66 -6 -100 -23 -127 -64 -17 -25
-18 -65 -18 -493 0 -504 2 -523 56 -631 53 -106 139 -158 275 -167 182 -11
355 61 430 179 54 86 59 134 59 624 0 488 0 486 -55 527 -14 10 -52 21 -87 24
-53 6 -63 10 -63 26 0 18 11 18 257 16 229 -3 258 -5 261 -19 2 -13 -9 -18
-55 -24 -32 -4 -72 -16 -90 -26 -59 -37 -62 -56 -66 -539 -5 -471 -9 -510 -63
-630 -51 -114 -175 -204 -324 -235 -92 -19 -295 -19 -376 0 -153 36 -266 122
-323 244 -43 94 -50 185 -51 666 0 246 -4 404 -11 429 -17 61 -49 84 -130 92
-58 6 -69 9 -69 25 0 18 14 19 315 19 300 0 315 -1 315 -19z"/>
</g>
</svg>
