<svg xmlns="http://www.w3.org/2000/svg" width="64" height="64" fill="none" xmlns:v="https://vecta.io/nano"><path d="M50.333 32H31.667V13.333c0-1.6-1.067-2.667-2.667-2.667a23.9 23.9 0 0 0-24 24 23.9 23.9 0 0 0 24 24 23.9 23.9 0 0 0 24-24c0-1.6-1.067-2.667-2.667-2.667zM31.667 53.067c-10.133 1.6-19.733-5.6-21.067-15.733C9 27.2 16.2 17.6 26.333 16.267v18.4c0 1.6 1.067 2.667 2.667 2.667h18.4C46.333 45.6 39.933 52 31.667 53.067zm8-47.733C38.067 5.333 37 6.4 37 8v16c0 1.6 1.067 2.667 2.667 2.667h16c1.6 0 2.667-1.067 2.667-2.667 0-10.4-8.267-18.667-18.667-18.667zm2.667 16v-10.4c5.333 1.067 9.333 5.067 10.4 10.4h-10.4z" fill="#ac3df0"/></svg>