<svg xmlns="http://www.w3.org/2000/svg" width="64" height="64" fill="none" xmlns:v="https://vecta.io/nano"><path d="M32 40c2.829 0 5.542-1.124 7.542-3.124s3.124-4.713 3.124-7.542v-16c0-2.829-1.124-5.542-3.124-7.542S34.829 2.667 32 2.667s-5.542 1.124-7.542 3.124-3.124 4.714-3.124 7.542v16c0 2.829 1.124 5.542 3.124 7.542S29.171 40 32 40zm-5.333-26.667c0-1.415.562-2.771 1.562-3.771S30.586 8 32 8s2.771.562 3.771 1.562 1.562 2.357 1.562 3.771v16c0 1.415-.562 2.771-1.562 3.771S33.414 34.667 32 34.667s-2.771-.562-3.771-1.562-1.562-2.357-1.562-3.771v-16zm26.667 16c0-.707-.281-1.386-.781-1.886s-1.178-.781-1.886-.781-1.386.281-1.886.781S48 28.626 48 29.333a16 16 0 0 1-16 16 16 16 0 0 1-16-16c0-.707-.281-1.386-.781-1.886s-1.178-.781-1.886-.781-1.385.281-1.886.781-.781 1.178-.781 1.886c.005 5.193 1.903 10.206 5.34 14.099s8.175 6.399 13.327 7.048V56H24c-.707 0-1.386.281-1.886.781s-.781 1.178-.781 1.886.281 1.386.781 1.886 1.178.781 1.886.781h16c.707 0 1.386-.281 1.886-.781s.781-1.178.781-1.886-.281-1.386-.781-1.886S40.707 56 40 56h-5.333v-5.52c5.152-.649 9.89-3.155 13.327-7.048s5.335-8.906 5.34-14.099z" fill="#00c470"/></svg>