<svg xmlns="http://www.w3.org/2000/svg" width="64" height="64" fill="none" xmlns:v="https://vecta.io/nano"><path d="M58.667 45.333H5.333c-.707 0-1.386.281-1.886.781S2.667 47.293 2.667 48s.281 1.386.781 1.886 1.178.781 1.886.781h53.333c.707 0 1.386-.281 1.886-.781s.781-1.178.781-1.886-.281-1.386-.781-1.886-1.178-.781-1.886-.781zm0 10.667H5.333c-.707 0-1.386.281-1.886.781s-.781 1.178-.781 1.886.281 1.386.781 1.886 1.178.781 1.886.781h53.333c.707 0 1.386-.281 1.886-.781s.781-1.178.781-1.886-.281-1.386-.781-1.886S59.374 56 58.667 56zM16 18.667c-.527 0-1.043.156-1.482.449s-.78.71-.982 1.197-.255 1.024-.152 1.541.357.992.73 1.365.848.627 1.365.73 1.053.05 1.541-.152.904-.544 1.197-.982.449-.954.449-1.482c0-.707-.281-1.386-.781-1.886s-1.178-.781-1.886-.781zm37.333-16H10.667a8 8 0 0 0-8 8V32a8 8 0 0 0 8 8h42.667a8 8 0 0 0 8-8V10.667a8 8 0 0 0-8-8zM56 32c0 .707-.281 1.386-.781 1.886s-1.178.781-1.886.781H10.667c-.707 0-1.386-.281-1.886-.781S8 32.707 8 32V10.667c0-.707.281-1.386.781-1.886S9.959 8 10.667 8h42.667c.707 0 1.386.281 1.886.781S56 9.959 56 10.667V32zM32 13.333a8 8 0 0 0-7.391 4.939 8 8 0 0 0 1.734 8.718 8 8 0 0 0 8.718 1.734A8 8 0 0 0 40 21.333a8 8 0 0 0-8-8zM32 24c-.527 0-1.043-.156-1.482-.449s-.78-.709-.982-1.197-.255-1.023-.152-1.541.357-.992.73-1.365.848-.627 1.365-.73 1.053-.05 1.541.152.904.544 1.197.982.449.954.449 1.482c0 .707-.281 1.386-.781 1.886S32.707 24 32 24zm16-5.333c-.527 0-1.043.156-1.481.449s-.78.71-.982 1.197-.255 1.024-.152 1.541.357.992.73 1.365.848.627 1.365.73 1.053.05 1.541-.152.904-.544 1.197-.982.449-.954.449-1.482c0-.707-.281-1.386-.781-1.886s-1.178-.781-1.886-.781z" fill="#10abed" fill-opacity=".91"/></svg>