<?xml version="1.0" standalone="no"?>
<!DOCTYPE svg PUBLIC "-//W3C//DTD SVG 20010904//EN"
 "http://www.w3.org/TR/2001/REC-SVG-20010904/DTD/svg10.dtd">
<svg version="1.0" xmlns="http://www.w3.org/2000/svg"
 width="260.000000pt" height="260.000000pt" viewBox="0 0 260.000000 260.000000"
 preserveAspectRatio="xMidYMid meet">
<metadata>
Created by potrace 1.14, written by Peter Selinger 2001-2017
</metadata>
<g transform="translate(0.000000,260.000000) scale(0.100000,-0.100000)"
fill="#000000" stroke="none">
<path d="M615 2114 c-302 -31 -498 -186 -536 -420 -26 -163 22 -246 152 -261
l49 -6 -15 36 c-29 69 -14 266 26 357 34 76 90 120 173 135 38 8 38 7 32 -21
-18 -86 -238 -1102 -254 -1177 l-20 -88 141 3 141 3 75 353 75 352 40 11 c84
23 172 -13 209 -85 55 -106 21 -354 -61 -439 -53 -56 -145 -56 -203 -1 l-28
27 -11 -27 c-16 -42 -12 -108 9 -146 11 -20 36 -44 62 -58 39 -21 54 -23 134
-20 76 3 98 8 143 33 206 112 314 465 207 675 -68 135 -212 187 -405 146 -36
-8 -67 -12 -68 -11 -5 4 86 426 92 432 2 3 49 -2 104 -11 55 -9 139 -16 188
-16 131 0 173 31 200 148 16 67 17 85 5 78 -28 -18 -162 -25 -289 -16 -191 14
-320 19 -367 14z"/>
<path d="M1809 2110 c-219 -34 -451 -188 -534 -352 -30 -60 -35 -81 -35 -140
0 -120 43 -172 152 -185 48 -6 51 -5 42 13 -5 10 -9 71 -9 134 0 108 2 119 32
182 17 37 52 89 77 116 53 56 146 113 146 88 0 -12 -90 -437 -246 -1164 -13
-61 -24 -117 -24 -122 0 -6 53 -10 138 -10 l138 0 28 138 c81 388 124 583 130
589 14 14 102 6 128 -11 62 -41 61 -130 -7 -378 -56 -205 -60 -281 -16 -330
25 -28 36 -32 91 -36 64 -5 196 13 205 28 3 4 -2 11 -11 14 -8 3 -24 27 -35
52 -25 56 -23 76 33 299 62 249 57 342 -22 408 -40 34 -89 47 -177 47 -40 0
-73 2 -73 5 0 13 66 136 107 200 60 93 121 163 175 202 l44 32 27 -34 c35 -44
91 -55 144 -28 76 37 95 143 37 204 -82 86 -240 47 -365 -89 -85 -93 -171
-228 -224 -352 -14 -30 -24 -50 -25 -45 0 6 24 125 54 265 30 140 53 257 50
259 -9 9 -120 9 -175 1z"/>
</g>
</svg>
