<?xml version="1.0" standalone="no"?>
<!DOCTYPE svg PUBLIC "-//W3C//DTD SVG 20010904//EN"
 "http://www.w3.org/TR/2001/REC-SVG-20010904/DTD/svg10.dtd">
<svg version="1.0" xmlns="http://www.w3.org/2000/svg"
 width="93.000000pt" height="93.000000pt" viewBox="0 0 93.000000 93.000000"
 preserveAspectRatio="xMidYMid meet">
<metadata>
Created by potrace 1.14, written by Peter Selinger 2001-2017
</metadata>
<g transform="translate(0.000000,93.000000) scale(0.100000,-0.100000)"
fill="#000000" stroke="none">
<path d="M29 803 c-1 -10 -1 -22 0 -27 1 -5 -4 -5 -11 1 -10 9 -13 -1 -14 -53
0 -36 3 -59 7 -53 4 7 6 21 4 31 -2 10 0 18 4 18 4 0 8 -18 7 -40 0 -23 -5
-39 -11 -36 -6 2 -10 -19 -11 -50 0 -30 3 -49 7 -43 4 7 6 21 4 31 -2 10 0 18
4 18 4 0 8 -18 7 -40 0 -23 -5 -39 -11 -36 -6 2 -10 -19 -11 -50 0 -30 3 -49
7 -43 4 7 6 21 4 31 -2 10 0 18 4 18 4 0 8 -18 7 -40 0 -23 -5 -39 -11 -36 -6
2 -10 -19 -11 -50 0 -30 3 -49 7 -43 4 7 6 21 4 31 -2 10 0 18 4 18 4 0 8 -18
7 -40 0 -23 -5 -39 -11 -36 -6 2 -10 -19 -11 -50 0 -30 3 -49 7 -43 4 7 6 21
4 31 -2 10 0 18 4 18 5 0 7 -21 6 -48 -3 -71 2 -82 40 -82 29 0 32 2 30 30 -1
17 3 34 8 37 6 3 7 1 3 -5 -3 -6 -3 -13 1 -15 10 -6 11 199 1 208 -4 4 -5 -4
-2 -19 2 -14 0 -26 -4 -26 -10 0 -10 40 0 56 4 6 36 11 72 12 58 1 67 -1 78
-21 6 -12 11 -23 10 -24 -1 -2 1 -3 6 -2 4 0 10 -10 13 -23 3 -13 11 -22 17
-20 10 2 18 -34 13 -61 -1 -5 3 -6 9 -2 6 3 7 11 4 17 -4 7 -2 8 4 4 7 -4 12
-18 12 -32 0 -15 6 -24 15 -24 13 0 20 -18 16 -43 -1 -4 6 -10 14 -13 8 -4 15
-13 15 -21 0 -10 9 -13 33 -11 19 2 31 8 29 15 -1 7 5 13 13 13 18 0 20 27 3
32 -7 3 -13 11 -14 19 -3 46 -4 48 -21 42 -12 -5 -15 -2 -10 10 3 9 2 17 -3
17 -5 0 -6 8 -3 17 6 15 4 16 -9 5 -13 -10 -16 -10 -15 0 1 33 -4 49 -13 43
-6 -4 -13 7 -16 24 -4 16 -12 32 -20 35 -19 7 -18 36 1 36 8 0 15 7 15 15 0 8
7 15 15 15 8 0 15 9 15 20 0 11 3 19 8 19 19 -3 25 2 12 11 -13 9 -13 10 0 10
11 0 16 9 15 28 -2 35 5 48 16 31 6 -10 8 -7 6 8 0 12 -5 19 -9 17 -4 -3 -8
-1 -8 5 0 5 5 13 10 16 14 9 12 25 -3 25 -8 0 -13 9 -12 23 3 31 -5 49 -20 43
-7 -2 -12 1 -12 7 1 33 -4 47 -18 47 -8 0 -15 7 -15 15 0 10 -10 15 -30 15
-20 0 -30 5 -30 15 0 18 -16 20 -23 3 -4 -10 -6 -10 -6 0 -1 9 -33 12 -126 12
-112 0 -125 -2 -126 -17z m1 -52 c0 -6 -4 -12 -8 -15 -5 -3 -9 1 -9 9 0 8 4
15 9 15 4 0 8 -4 8 -9z m259 -28 c-3 -20 2 -27 11 -13 8 12 10 11 10 -7 0 -14
5 -21 13 -17 8 3 13 -4 14 -17 1 -11 8 -28 15 -36 18 -22 19 -63 1 -56 -9 3
-14 0 -13 -8 5 -32 -1 -47 -21 -52 -12 -3 -18 -10 -15 -16 4 -5 1 -13 -5 -17
-8 -4 -9 -3 -5 4 4 7 2 12 -3 12 -6 0 -11 -5 -11 -11 0 -14 -180 -10 -181 5
-1 6 -2 23 -3 38 -2 15 1 33 5 40 5 8 7 -3 5 -25 -2 -20 -1 -39 3 -41 4 -3 6
41 5 97 -2 124 -1 120 -16 111 -6 -4 -8 -3 -5 3 8 12 198 18 196 6z m-182 -38
c0 -8 -4 -12 -9 -9 -5 3 -6 10 -3 15 9 13 12 11 12 -6z m-1 -59 c0 -19 -3 -33
-7 -31 -7 5 -4 65 4 65 1 0 3 -15 3 -34z m0 -355 c-2 -42 -11 -46 -12 -5 0 19
2 34 6 34 4 0 7 -13 6 -29z m1 -66 c0 -8 -4 -12 -9 -9 -5 3 -6 10 -3 15 9 13
12 11 12 -6z"/>
<path d="M344 616 c1 -8 5 -18 8 -22 4 -3 5 1 4 10 -1 8 -5 18 -8 22 -4 3 -5
-1 -4 -10z"/>
<path d="M656 808 c3 -4 10 -5 16 -2 7 4 8 2 4 -4 -4 -7 -18 -12 -32 -12 -15
0 -24 -6 -24 -15 0 -8 -7 -15 -15 -15 -8 0 -15 -6 -15 -14 0 -8 -6 -17 -12
-19 -10 -4 -10 -6 0 -6 6 -1 12 -6 12 -12 0 -6 -6 -9 -14 -6 -12 5 -14 -8 -13
-68 1 -65 3 -73 16 -62 12 9 13 9 8 0 -5 -7 2 -22 14 -34 16 -16 18 -21 6 -16
-9 3 -17 3 -17 -2 0 -5 9 -11 21 -14 12 -3 18 -10 14 -16 -4 -7 4 -11 20 -11
19 0 26 -4 22 -14 -3 -7 0 -13 6 -13 85 2 137 -19 137 -56 0 -10 6 -14 14 -11
10 4 13 -9 13 -60 0 -36 -3 -65 -6 -64 -21 2 -30 -4 -25 -17 6 -14 -6 -20 -29
-16 -5 1 -6 -3 -3 -8 4 -5 2 -12 -4 -16 -5 -3 -10 0 -10 7 0 11 -2 11 -9 0 -5
-8 -24 -12 -49 -11 -23 2 -40 5 -37 7 6 6 -19 30 -27 26 -10 -6 -29 32 -20 41
4 5 1 5 -5 1 -7 -4 -19 -4 -25 1 -19 11 -39 13 -32 2 3 -5 10 -6 16 -3 7 4 8
2 4 -4 -4 -6 -13 -9 -21 -6 -16 6 -35 -24 -27 -45 8 -22 35 -51 49 -51 7 0 13
-7 13 -15 0 -9 9 -15 21 -15 14 0 19 -5 16 -13 -3 -8 1 -14 9 -14 7 0 10 5 7
11 -3 6 0 5 8 -2 22 -20 158 -14 145 7 -4 6 11 10 51 13 10 1 10 4 0 17 -6 8
-7 12 -2 9 14 -8 50 7 51 21 1 6 2 20 3 31 0 11 7 19 14 18 9 -2 13 22 15 91
3 82 2 93 -12 88 -11 -5 -16 0 -17 13 -1 11 -2 26 -3 32 0 7 -10 14 -21 16
-11 2 -24 8 -30 14 -6 6 -3 7 10 2 20 -7 20 -7 0 9 -11 8 -27 14 -37 12 -11
-3 -15 1 -11 11 4 11 -6 14 -46 14 -40 0 -51 4 -51 16 0 8 -4 13 -9 9 -6 -3
-14 2 -19 11 -5 9 -12 14 -17 12 -4 -1 -10 17 -12 40 -3 27 0 42 6 38 9 -6 27
31 23 48 -2 5 4 6 13 3 8 -4 15 -2 15 4 0 5 20 9 45 8 36 -2 42 -5 33 -16 -6
-8 -7 -13 -2 -12 20 4 35 -2 29 -11 -6 -10 53 -29 73 -22 11 4 18 34 12 57 -1
6 -3 16 -3 23 0 6 -6 12 -13 12 -6 0 -14 7 -18 15 -3 8 -13 15 -21 15 -9 0
-14 4 -10 9 3 5 0 13 -6 17 -7 4 -9 3 -5 -4 3 -6 2 -13 -4 -17 -5 -3 -10 1
-10 10 0 14 -12 16 -80 14 -44 -1 -77 -6 -74 -11z"/>
<path d="M3 155 c0 -8 4 -12 9 -9 5 3 6 10 3 15 -9 13 -12 11 -12 -6z"/>
</g>
</svg>
